# xmcd CD database file
#
# Track frame offsets:
#	150
#	12715
#	25041
#	37487
#	49072
#	63367
#	76921
#	90698
#	102360
#	117288
#	130901
#	142218
#	154041
#	167877
#	179138
#	193814
#	208010
#	220254
#	231556
#	244997
#
# Disc length: 3486 seconds
#
# Revision: 0
# Processed by: cddbd v1.5.2PL0 Copyright (c) Steve Scherf et al.
# Submitted via: CDex 1.51
#
DISCID=360d9c14
DTITLE=Grand Jojo - Double Rest Of [CD2)
DYEAR=2013
DGENRE=Ambiance
TTITLE0=Mexico
TTITLE1=Les Petites Boules Pour La Toux
TTITLE2=Ooba Boogie
TTITLE3=Superman
TTITLE4=Jo La Mitraillette
TTITLE5=Tarzan
TTITLE6=Zaza Zouzou
TTITLE7=Ouvre La Porte Charlotte
TTITLE8=SOS
TTITLE9=Le Gitan
TTITLE10=Je Ne Fume Plus
TTITLE11=A Outsiplou
TTITLE12=El Toro
TTITLE13=Il Jouait Du Saxophone
TTITLE14=A La Queuleuleu
TTITLE15=Oh Eleonore
TTITLE16=Charleston Luly
TTITLE17=On A L'béguin Pour Célestin
TTITLE18=Zanzibar
TTITLE19=Le Dernier Verre
EXTD=YEAR: 2013
EXTT0=
EXTT1=
EXTT2=
EXTT3=
EXTT4=
EXTT5=
EXTT6=
EXTT7=
EXTT8=
EXTT9=
EXTT10=
EXTT11=
EXTT12=
EXTT13=
EXTT14=
EXTT15=
EXTT16=
EXTT17=
EXTT18=
EXTT19=
PLAYORDER=
